<svg width="16" height="16" viewBox="0 0 16 16" fill="none" xmlns="http://www.w3.org/2000/svg">
<g clip-path="url(#clip0_32_2)">
<path d="M12.7256 0.0909464C12.8679 0.150015 12.9978 0.237523 13.1145 0.352534L15.6584 2.85059C15.7643 2.95466 15.845 3.07311 15.9012 3.20281L15.9148 3.23282C15.9721 3.37564 15.9999 3.52909 15.9999 3.68786C15.9999 3.84006 15.9746 3.98664 15.9224 4.12446L15.9152 4.14415C15.8585 4.28573 15.7738 4.41512 15.6597 4.52794L14.2481 5.92183C14.1194 6.0484 13.911 6.04778 13.783 5.92058L10.0249 2.19115C9.89618 2.06395 9.89618 1.85737 10.0249 1.72986L11.4187 0.352534C11.5341 0.238148 11.6628 0.150952 11.8054 0.0912589C11.9499 0.030628 12.1033 0 12.2658 0C12.4271 0 12.5801 0.0303155 12.7256 0.0909464ZM5.52622 14.4595L4.78187 14.6805L4.02203 14.9093C3.06013 15.2084 2.10361 15.5018 1.1395 15.7931C0.805584 15.8928 0.583608 15.9578 0.478944 15.9859C0.434359 15.9984 0.389458 16.0028 0.342976 15.9981C0.149458 15.9787 0.0368885 15.8637 0.00684902 15.6525C-0.00358576 15.5812 -0.00200474 15.4896 0.0109597 15.3784C0.0435289 15.0971 0.157047 14.6136 0.350881 13.9285L1.37128 10.3401C1.38709 10.2844 1.41649 10.236 1.45539 10.1979L8.78377 2.95404C8.91246 2.82684 9.12147 2.82684 9.25049 2.95404L13.0083 6.67221C13.1363 6.79941 13.1357 7.00506 13.0076 7.13163L5.68242 14.373C5.63949 14.4156 5.5854 14.4456 5.52622 14.4595Z" fill="#7C4646"/>
</g>
<defs>
<clipPath id="clip0_32_2">
<rect width="16" height="16" fill="white"/>
</clipPath>
</defs>
</svg>
